<svg width="64" height="64" viewBox="0 0 64 64" fill="none" xmlns="http://www.w3.org/2000/svg">
  <defs>
    <linearGradient id="logoGradient" x1="0%" y1="0%" x2="100%" y2="100%">
      <stop offset="0%" style="stop-color:#6366f1"/>
      <stop offset="50%" style="stop-color:#a855f7"/>
      <stop offset="100%" style="stop-color:#ec4899"/>
    </linearGradient>
    <filter id="glow">
      <feGaussianBlur stdDeviation="2" result="coloredBlur"/>
      <feMerge>
        <feMergeNode in="coloredBlur"/>
        <feMergeNode in="SourceGraphic"/>
      </feMerge>
    </filter>
  </defs>
  
  <!-- Background circle -->
  <circle cx="32" cy="32" r="30" fill="url(#logoGradient)" filter="url(#glow)"/>
  
  <!-- Sparkle icon -->
  <g transform="translate(16, 16)" fill="white">
    <path d="M16 0L18.47 10.03L28.5 12.5L18.47 14.97L16 25L13.53 14.97L3.5 12.5L13.53 10.03L16 0Z" opacity="0.9"/>
    <path d="M8 20L9.23 24.77L14 26L9.23 27.23L8 32L6.77 27.23L2 26L6.77 24.77L8 20Z" opacity="0.7"/>
    <path d="M24 4L25.23 8.77L30 10L25.23 11.23L24 16L22.77 11.23L18 10L22.77 8.77L24 4Z" opacity="0.7"/>
  </g>
</svg>
